<?xml version="1.0" encoding="utf-8"?>
<!-- Generator: Adobe Illustrator 23.1.0, SVG Export Plug-In . SVG Version: 6.00 Build 0)  -->
<svg version="1.1" id="图层_1" xmlns="http://www.w3.org/2000/svg" xmlns:xlink="http://www.w3.org/1999/xlink" x="0px" y="0px"
	 viewBox="0 0 14 14" style="enable-background:new 0 0 14 14;" xml:space="preserve">
<style type="text/css">
	.st0{fill-rule:evenodd;clip-rule:evenodd;fill:#BFCBDA;}
</style>
<path id="爱心超市" class="st0" d="M7,0.7c1.7,0.2,3.1,1.3,3.6,2.9c0.1,0.1,0.2,0.2,0.4,0.2l0,0c0.2,0,0.4-0.2,0.4-0.4
	c0,0,0-0.1,0-0.1C10.7,1.4,9,0.1,7,0C5,0.1,3.3,1.4,2.7,3.3c-0.1,0.2,0,0.4,0.2,0.5c0,0,0.1,0,0.1,0l0,0c0.2,0,0.3-0.1,0.3-0.2
	C3.9,2,5.3,0.8,7,0.7L7,0.7z M13.5,4.3H0.5C0.2,4.3,0,4.5,0,4.8v1.5c0,0.3,0.2,0.5,0.5,0.5H1l0.8,6.3c0,0.4,0.2,0.7,0.6,0.8h9.1
	c0.4-0.1,0.6-0.5,0.6-0.8L13,6.8h0.5c0.3,0,0.5-0.3,0.5-0.5V4.8C14,4.5,13.8,4.3,13.5,4.3L13.5,4.3L13.5,4.3z M5.1,12
	c0,0.3-0.2,0.5-0.5,0.6c-0.3,0-0.5-0.3-0.5-0.6V7.1c0-0.3,0.2-0.5,0.5-0.6c0.3,0,0.5,0.3,0.5,0.6L5.1,12L5.1,12z M7.5,12
	c0,0.3-0.2,0.5-0.5,0.6c-0.3,0-0.5-0.3-0.5-0.6V7.1c0-0.3,0.2-0.5,0.5-0.6c0.3,0,0.5,0.3,0.5,0.6V12L7.5,12z M9.9,12
	c0,0.3-0.1,0.5-0.4,0.6c-0.3,0-0.5-0.1-0.6-0.4c0,0,0-0.1,0-0.1V7.1c0-0.3,0.1-0.5,0.4-0.6c0.3,0,0.5,0.1,0.6,0.4c0,0,0,0.1,0,0.1
	V12L9.9,12z"/>
</svg>
