<svg xmlns="http://www.w3.org/2000/svg" width="14" height="14" viewBox="0 0 14 14">
  <defs>
    <style>
      .cls-1 {
        fill: #409eff;
        fill-rule: evenodd;
      }
    </style>
  </defs>
  <path id="对接管理_选中_" data-name="对接管理（选中）" class="cls-1" d="M13.978,3.188A3.572,3.572,0,0,0,10.073.036,3.48,3.48,0,0,0,7.707,1.323L4.793,4.939,6.167,5.986,9.051,2.408a1.785,1.785,0,0,1,1.218-.66,1.834,1.834,0,0,1,2,1.617,1.793,1.793,0,0,1-.39,1.328l-0.206.256,1.357,1.068,0.193-.24A3.479,3.479,0,0,0,13.978,3.188ZM2.441,4.966A1.819,1.819,0,1,1,4.724,2.133L4.98,2.339,6.047,0.981l-0.24-.193A3.522,3.522,0,0,0,3.586,0,3.608,3.608,0,0,0,3.2.021,3.553,3.553,0,0,0,.051,3.931a3.53,3.53,0,0,0,1.3,2.386L4.991,9.254,6.037,7.868ZM0.022,10.805A3.577,3.577,0,0,0,3.931,13.96,3.474,3.474,0,0,0,6.3,12.676L9.208,9.067,7.834,8.02,4.825,11.754l-0.016-.013a1.826,1.826,0,0,1-3.08-1.112A1.793,1.793,0,0,1,2.118,9.3l0.206-.256L0.968,7.977l-0.193.24A3.479,3.479,0,0,0,.022,10.805ZM10.408,14a3.606,3.606,0,0,0,.385-0.021,3.552,3.552,0,0,0,1.85-6.3L9,4.745,7.957,6.12l3.6,2.9a1.824,1.824,0,1,1-2.288,2.84l-0.256-.207L7.941,13.013l0.246,0.2A3.522,3.522,0,0,0,10.408,14Zm2.366-6.481"/>
</svg>
