<svg xmlns="http://www.w3.org/2000/svg" width="14" height="14" viewBox="0 0 14 14">
  <defs>
    <style>
      .cls-1 {
        fill: #bfcbd9;
        fill-rule: evenodd;
      }
    </style>
  </defs>
  <path id="扶贫干部管理_未选中_" data-name="扶贫干部管理（未选中）" class="cls-1" d="M12.2,5.594a6.451,6.451,0,0,0-.522-1.3L12.7,2.754,11.246,1.3,9.71,2.319a5.121,5.121,0,0,0-1.3-.522L8.029,0H5.971L5.594,1.8a5.124,5.124,0,0,0-1.3.522L2.754,1.3,1.3,2.754,2.319,4.29a5.108,5.108,0,0,0-.522,1.3L0,5.971V8.029L1.8,8.406a6.444,6.444,0,0,0,.522,1.3L1.3,11.246,2.754,12.7,4.29,11.681a5.128,5.128,0,0,0,1.3.522L5.971,14H8.029l0.377-1.8a5.125,5.125,0,0,0,1.3-.522L11.246,12.7,12.7,11.246,11.681,9.71a5.116,5.116,0,0,0,.522-1.3L14,8.029V5.971ZM7.014,9.42A2.435,2.435,0,1,1,9.449,6.986,2.412,2.412,0,0,1,7.014,9.42h0Zm0,0"/>
</svg>
