<svg xmlns="http://www.w3.org/2000/svg" width="14" height="14" viewBox="0 0 14 14">
  <defs>
    <style>
      .cls-1 {
        fill: #bfcbda;
        fill-rule: evenodd;
      }
    </style>
  </defs>
  <path id="就业帮扶" class="cls-1" d="M12.163,14H1.837A1.855,1.855,0,0,1,0,12.131V3.892A1.856,1.856,0,0,1,1.837,2.023h2.19V0.808A0.8,0.8,0,0,1,4.822,0H9.029a0.8,0.8,0,0,1,.794.808V2.023h2.34A1.855,1.855,0,0,1,14,3.892v8.239A1.855,1.855,0,0,1,12.163,14ZM1.156,12.131a0.688,0.688,0,0,0,.682.693H12.163a0.688,0.688,0,0,0,.681-0.693V7.084H9.179c0,0.057.022,0.112,0.022,0.17a2.217,2.217,0,1,1-4.432,0c0-.058.02-0.112,0.024-0.17H1.156v5.047ZM5.925,7.254a1.061,1.061,0,1,0,2.121,0A1.075,1.075,0,0,0,8,7.084H5.949A1.09,1.09,0,0,0,5.925,7.254ZM8.668,1.176H5.183V2.021H8.668V1.176Z"/>
</svg>
