<svg xmlns="http://www.w3.org/2000/svg" width="14" height="14" viewBox="0 0 14 14">
  <defs>
    <style>
      .cls-1 {
        fill: #bfcbda;
        fill-rule: evenodd;
      }
    </style>
  </defs>
  <path id="受助人管理_未选中_" data-name="受助人管理（未选中）" class="cls-1" d="M12.76,1.173a3.434,3.434,0,0,0-5.1,0L6.254,2.682l0.42,0.45,4.258,4.562L11.76,8.386,13.03,6.9A4.361,4.361,0,0,0,14,4.1a4.646,4.646,0,0,0-1.24-2.927h0Zm0,0M6.7,14L1.085,6.879A4.16,4.16,0,0,1,0,4.045,4.166,4.166,0,0,1,1.1,1.192a3.622,3.622,0,0,1,5.371,0L6.5,1.216,11.865,8.33ZM3.789,1.275a2.463,2.463,0,0,0-1.811.806,2.867,2.867,0,0,0-.757,1.964,2.861,2.861,0,0,0,.757,1.964L2,6.028l4.774,6.05,3.482-3.826L5.578,2.058A2.455,2.455,0,0,0,3.789,1.275Z"/>
</svg>
