<svg xmlns="http://www.w3.org/2000/svg" width="14" height="14" viewBox="0 0 14 14">
  <defs>
    <style>
      .cls-1 {
        fill: #409eff;
        fill-rule: evenodd;
      }
    </style>
  </defs>
  <path id="文章管理_选中_" data-name="文章管理（选中）" class="cls-1" d="M2.545,0A2.589,2.589,0,0,0,0,2.619V11.54A2.45,2.45,0,0,0,2.549,14h8.737A2.6,2.6,0,0,0,14,11.531V3.9L9.96,0H2.545Zm0,12.727a1.155,1.155,0,0,1-1.23-1.187V2.619A1.3,1.3,0,0,1,2.545,1.273H8.722V3.887a1.165,1.165,0,0,0,1.248,1.2h2.71v6.44a1.306,1.306,0,0,1-1.395,1.2H2.549ZM10.3,10.182a0.637,0.637,0,1,0,0-1.273H3.7a0.637,0.637,0,1,0,0,1.273h6.6Zm0-2.545a0.637,0.637,0,1,0,0-1.273H3.7a0.637,0.637,0,1,0,0,1.273h6.6ZM6.34,5.091a0.637,0.637,0,1,0,0-1.273H3.7a0.637,0.637,0,1,0,0,1.273H6.34Zm0,0"/>
</svg>
